<svg width="25" height="25" viewBox="0 0 25 25" fill="none" xmlns="http://www.w3.org/2000/svg">
<path d="M8.79831 19.5486L5.06372 21.6024C4.84457 21.7229 4.64761 21.871 4.46436 22.0324C6.64172 23.8834 9.45246 25.0001 12.5234 25.0001C15.5718 25.0001 18.3646 23.9001 20.5358 22.0743C20.3355 21.9038 20.1183 21.7505 19.8774 21.6296L15.8783 19.6138C15.3616 19.3533 15.0352 18.8209 15.0352 18.2385V16.6566C15.1476 16.5275 15.2761 16.3618 15.4135 16.1661C15.9586 15.3899 16.3709 14.5361 16.6567 13.6403C17.1696 13.4808 17.5475 13.0032 17.5475 12.4355V10.7469C17.5475 10.3755 17.3836 10.0436 17.129 9.8112V7.37019C17.129 7.37019 17.6263 3.57153 12.5239 3.57153C7.42151 3.57153 7.91886 7.37019 7.91886 7.37019V9.8112C7.66381 10.0436 7.50039 10.3755 7.50039 10.7469V12.4355C7.50039 12.8803 7.7323 13.2717 8.07945 13.4979C8.49792 15.3347 9.59369 16.6566 9.59369 16.6566V18.1995C9.59321 18.7614 9.2881 19.279 8.79831 19.5486Z" fill="#E7ECED"/>
<path d="M12.7141 0.00186147C5.81152 -0.116068 0.119792 5.38415 0.0018627 12.2868C-0.065121 16.2006 1.67929 19.7182 4.45675 22.0574C4.63836 21.8989 4.83318 21.7536 5.0497 21.6357L8.77956 19.6012C9.26873 19.3342 9.57346 18.8215 9.57346 18.2639V16.7355C9.57346 16.7355 8.4786 15.426 8.06114 13.6066C7.7149 13.3826 7.48281 12.9953 7.48281 12.5542V10.8815C7.48281 10.5136 7.6465 10.1848 7.90075 9.9546V7.53659C7.90075 7.53659 7.40403 3.77371 12.5 3.77371C17.5959 3.77371 17.0992 7.53659 17.0992 7.53659V9.9546C17.3539 10.1848 17.5172 10.5136 17.5172 10.8815V12.5542C17.5172 13.1165 17.1398 13.5897 16.6275 13.7477C16.3421 14.635 15.9303 15.4808 15.3859 16.2497C15.2487 16.4435 15.1204 16.6077 15.0081 16.7355V18.3026C15.0081 18.8795 15.3341 19.4073 15.8501 19.6649L19.8441 21.6617C20.0838 21.7815 20.3003 21.9329 20.4998 22.1013C23.1933 19.855 24.9335 16.4964 24.9981 12.7141C25.117 5.81152 19.6172 0.119791 12.7141 0.00186147Z" fill="#556080"/>
</svg>
