<svg width="25" height="25" viewBox="0 0 25 25" fill="none" xmlns="http://www.w3.org/2000/svg">
<path d="M13.7105 12.5L20.094 4.86084C20.201 4.73389 20.1111 4.54102 19.9457 4.54102H18.0051C17.8908 4.54102 17.7814 4.59229 17.706 4.68018L12.4411 10.9814L7.17616 4.68018C7.1032 4.59229 6.99377 4.54102 6.87704 4.54102H4.93644C4.77108 4.54102 4.6811 4.73389 4.7881 4.86084L11.1717 12.5L4.7881 20.1392C4.76413 20.1675 4.74875 20.2021 4.74379 20.2389C4.73883 20.2757 4.7445 20.3132 4.76012 20.3468C4.77574 20.3805 4.80065 20.409 4.83191 20.4288C4.86316 20.4487 4.89944 20.4592 4.93644 20.459H6.87704C6.99134 20.459 7.10077 20.4077 7.17616 20.3198L12.4411 14.0186L17.706 20.3198C17.7789 20.4077 17.8884 20.459 18.0051 20.459H19.9457C20.1111 20.459 20.201 20.2661 20.094 20.1392L13.7105 12.5Z" fill="#A3A3A3"/>
</svg>
