<svg width="104" height="122" viewBox="0 0 104 122" fill="none" xmlns="http://www.w3.org/2000/svg">
  <g clip-path="url(#clip0_1220_1999)">
    <path d="M34.0207 7.71694C33.0439 7.71429 32.0791 7.93194 31.1984 8.35366L15.5556 15.8681L5.77506 20.4774C5.49923 20.6295 5.23404 20.7544 4.95394 20.8777C4.90444 21.5312 4.86986 22.1938 4.86986 22.864H4.86607V22.9899H4.86986C4.89454 31.3103 9.73085 42.7328 19.7336 42.7616V42.7653H19.8061L19.8099 42.7616C23.9897 42.7451 27.7491 40.4559 30.4383 36.7683C33.5819 32.4621 34.968 26.7139 34.5972 21.1371L36.8161 20.0733C40.0569 18.5265 41.4246 14.6465 39.8751 11.4113C38.7614 9.0859 36.4415 7.72414 34.0205 7.71706L34.0207 7.71694ZM59.8794 7.71694C57.4584 7.72402 55.1385 9.0859 54.0248 11.4112C52.4754 14.6464 53.8468 18.5264 57.0878 20.0732L59.3028 21.1369C58.932 26.7138 60.3181 32.462 63.4617 36.7682C66.1509 40.4558 69.9102 42.745 74.0901 42.7614L74.0939 42.7652H74.1703V42.7614C84.173 42.7328 89.0055 31.3103 89.0302 22.9898H89.034V22.8639H89.0302C89.0302 22.1937 88.9995 21.5311 88.95 20.8776C88.6701 20.7542 88.401 20.6294 88.1251 20.4773L78.3484 15.868L62.7018 8.35354C61.8211 7.93182 60.8563 7.71416 59.8795 7.71682L59.8794 7.71694ZM93.9567 44.5952C93.0794 44.5862 92.177 45.1103 91.4018 46.4367C86.2209 55.3066 79.6505 78.0953 94.7244 78.0385C109.798 77.9816 103.661 55.9029 96.6264 46.2765C95.9121 45.299 94.9512 44.6055 93.9568 44.5952H93.9567ZM31.3741 61.4084C24.4733 61.4084 17.6542 62.4846 11.1713 64.5842C9.91042 64.9935 8.66229 65.441 7.42867 65.9262C6.08193 66.4551 4.84749 66.9783 3.73184 67.4969L3.74333 67.5199L3.68223 67.5466L3.67844 67.5504C0.455536 69.089 -0.906608 72.9417 0.634695 76.1591C2.16683 79.3573 5.99345 80.7235 9.20462 79.2281L9.21232 79.251C10.2797 78.755 11.261 78.3302 12.1491 77.9815C13.1486 77.5886 14.1599 77.2263 15.1815 76.895C20.4244 75.197 25.8897 74.3253 31.3742 74.3253C37.6417 74.3254 43.7529 75.4588 49.4689 77.5583C51.7954 78.4128 54.0369 79.4172 56.1789 80.5663C67.2894 86.527 76.1448 96.4207 80.6475 108.775C81.8667 112.132 85.5833 113.869 88.9463 112.652C92.3093 111.435 94.0456 107.725 92.8264 104.368C87.2039 88.9402 76.1638 76.598 62.3199 69.1708C59.6098 67.7167 56.8067 66.4518 53.9333 65.3963C46.8729 62.8032 39.2578 61.4088 31.3742 61.4084H31.3741Z" fill="rgb(245, 245, 245)"/>
  </g>
  <defs>
    <clipPath id="clip0_1220_1999">
      <rect width="104" height="122" fill="white"/>
    </clipPath>
  </defs>
</svg>
