<svg width="35" height="36" viewBox="0 0 35 36" fill="none" xmlns="http://www.w3.org/2000/svg">
<path d="M14.7973 4.224H14.2213C11.3733 4.224 9.14931 4.944 7.54931 6.384C5.98131 7.792 5.19731 10.304 5.19731 13.92C5.19731 15.104 5.30931 15.936 5.53331 16.416C5.75731 16.864 5.86931 17.12 5.86931 17.184C4.14131 17.184 2.84531 16.832 1.98131 16.128C1.14931 15.392 0.733313 14.192 0.733313 12.528C0.733313 10.256 1.29331 8.192 2.41331 6.336C3.53331 4.448 5.30931 2.928 7.74131 1.776C10.2053 0.623999 13.3253 0.0479994 17.1013 0.0479994C19.2133 0.0479994 21.4853 0.239999 23.9173 0.623998C25.9653 0.975999 27.7893 1.152 29.3893 1.152C31.4373 1.152 33.2933 0.815999 34.9573 0.143998C34.8933 2.224 34.3653 3.76 33.3733 4.752C32.3813 5.744 30.9093 6.24 28.9573 6.24C27.9333 6.24 26.9093 6.16 25.8853 6C24.8613 5.84 23.4053 5.568 21.5173 5.184L14.8933 36H7.98131L14.7973 4.224Z" fill="#00C2FF"/>
</svg>
