<svg width="94" height="71" viewBox="0 0 94 71" fill="none" xmlns="http://www.w3.org/2000/svg">
<path d="M17.1489 12.224H16.5729C13.7249 12.224 11.5009 12.944 9.90088 14.384C8.33288 15.792 7.54888 18.304 7.54888 21.92C7.54888 23.104 7.66088 23.936 7.88488 24.416C8.10888 24.864 8.22088 25.12 8.22088 25.184C6.49288 25.184 5.19688 24.832 4.33288 24.128C3.50088 23.392 3.08488 22.192 3.08488 20.528C3.08488 18.256 3.64488 16.192 4.76488 14.336C5.88488 12.448 7.66088 10.928 10.0929 9.776C12.5569 8.624 15.6769 8.048 19.4529 8.048C21.5649 8.048 23.8369 8.24 26.2689 8.624C28.3169 8.976 30.1409 9.152 31.7409 9.152C33.7889 9.152 35.6449 8.816 37.3089 8.144C37.2449 10.224 36.7169 11.76 35.7249 12.752C34.7329 13.744 33.2609 14.24 31.3089 14.24C30.2849 14.24 29.2609 14.16 28.2369 14C27.2129 13.84 25.7569 13.568 23.8689 13.184L17.2449 44H10.3329L17.1489 12.224ZM31.6663 44.288C29.8423 44.288 28.3223 43.664 27.1063 42.416C25.8902 41.168 25.2822 39.216 25.2822 36.56C25.2822 34.192 25.7463 31.712 26.6743 29.12C27.6343 26.496 29.0423 24.288 30.8983 22.496C32.7863 20.672 35.0263 19.76 37.6183 19.76C38.9303 19.76 39.9063 19.984 40.5463 20.432C41.1863 20.88 41.5063 21.472 41.5063 22.208V22.544L42.0343 20H48.9463L45.4903 36.32C45.3623 36.8 45.2983 37.312 45.2983 37.856C45.2983 39.232 45.9543 39.92 47.2663 39.92C48.1623 39.92 48.9303 39.504 49.5703 38.672C50.2423 37.84 50.7703 36.752 51.1543 35.408H53.1703C51.9863 38.864 50.5143 41.216 48.7543 42.464C47.0263 43.68 45.2823 44.288 43.5223 44.288C42.1783 44.288 41.0903 43.92 40.2583 43.184C39.4583 42.416 38.9783 41.312 38.8183 39.872C37.8903 41.184 36.8503 42.256 35.6983 43.088C34.5783 43.888 33.2343 44.288 31.6663 44.288ZM34.7863 39.632C35.5863 39.632 36.3703 39.264 37.1383 38.528C37.9383 37.76 38.4823 36.72 38.7703 35.408L41.0743 24.56C41.0743 24.144 40.9143 23.744 40.5943 23.36C40.2743 22.944 39.7783 22.736 39.1063 22.736C37.8263 22.736 36.6743 23.488 35.6503 24.992C34.6263 26.464 33.8263 28.256 33.2503 30.368C32.6743 32.448 32.3863 34.288 32.3863 35.888C32.3863 37.488 32.6103 38.512 33.0583 38.96C33.5383 39.408 34.1143 39.632 34.7863 39.632ZM54.8199 18.224H61.7319L60.9639 21.824C62.5639 20.448 64.4359 19.76 66.5799 19.76C68.3719 19.76 69.7959 20.352 70.8519 21.536C71.9079 22.72 72.4359 24.656 72.4359 27.344C72.4359 29.872 72.0679 32.432 71.3319 35.024C70.5959 37.584 69.3479 39.776 67.5879 41.6C65.8279 43.392 63.5079 44.288 60.6279 44.288C58.5799 44.288 57.2199 43.712 56.5479 42.56L54.0519 54.272L46.8039 56L54.8199 18.224ZM59.1399 40.112C60.6759 40.112 61.9399 39.392 62.9319 37.952C63.9559 36.512 64.6919 34.8 65.1399 32.816C65.6199 30.8 65.8599 28.928 65.8599 27.2C65.8599 24.544 65.0599 23.216 63.4599 23.216C62.8839 23.216 62.2919 23.424 61.6839 23.84C61.1079 24.256 60.5959 24.832 60.1479 25.568L57.3159 39.008C57.5719 39.744 58.1799 40.112 59.1399 40.112ZM80.393 44.288C78.057 44.288 76.233 43.68 74.921 42.464C73.609 41.216 72.953 39.28 72.953 36.656C72.953 34.448 73.385 32.016 74.249 29.36C75.113 26.704 76.521 24.416 78.473 22.496C80.425 20.544 82.905 19.568 85.913 19.568C89.433 19.568 91.193 21.104 91.193 24.176C91.193 25.968 90.681 27.616 89.657 29.12C88.633 30.624 87.273 31.84 85.577 32.768C83.881 33.664 82.073 34.176 80.153 34.304C80.089 35.008 80.057 35.488 80.057 35.744C80.057 38.4 81.049 39.728 83.033 39.728C83.929 39.728 84.889 39.488 85.913 39.008C86.937 38.528 87.865 37.92 88.697 37.184C87.833 41.92 85.065 44.288 80.393 44.288ZM80.489 32C81.705 31.968 82.841 31.568 83.897 30.8C84.985 30.032 85.849 29.056 86.489 27.872C87.161 26.656 87.497 25.392 87.497 24.08C87.497 22.768 87.097 22.112 86.297 22.112C85.177 22.112 84.057 23.136 82.937 25.184C81.849 27.2 81.033 29.472 80.489 32Z" fill="white"/>
<path d="M64.2115 70.144C63.1235 70.144 62.2915 69.88 61.7155 69.352C61.1395 68.808 60.8515 68.048 60.8515 67.072C60.8515 66.592 60.9075 66.136 61.0195 65.704L63.5875 53.68L67.1395 53.2L65.9875 58.6C66.4355 58.328 66.8035 58.152 67.0915 58.072C67.3795 57.976 67.6675 57.928 67.9555 57.928C69.8435 57.928 70.7875 59.296 70.7875 62.032C70.7875 63.136 70.5715 64.32 70.1395 65.584C69.7235 66.832 69.0195 67.904 68.0275 68.8C67.0515 69.696 65.7795 70.144 64.2115 70.144ZM65.5555 67.816C66.0515 67.816 66.5155 67.512 66.9475 66.904C67.3795 66.28 67.7235 65.512 67.9795 64.6C68.2355 63.672 68.3635 62.784 68.3635 61.936C68.3635 61.296 68.2515 60.752 68.0275 60.304C67.8035 59.856 67.4915 59.632 67.0915 59.632C66.8515 59.632 66.5795 59.672 66.2755 59.752C65.9875 59.816 65.7875 59.92 65.6755 60.064L64.3555 66.16C64.3075 66.352 64.2835 66.536 64.2835 66.712C64.2835 67.448 64.7075 67.816 65.5555 67.816ZM75.6916 56.704C75.1636 56.704 74.7156 56.52 74.3476 56.152C73.9796 55.784 73.7956 55.336 73.7956 54.808C73.7956 54.28 73.9796 53.832 74.3476 53.464C74.7156 53.08 75.1636 52.888 75.6916 52.888C76.2196 52.888 76.6676 53.08 77.0356 53.464C77.4196 53.832 77.6116 54.28 77.6116 54.808C77.6116 55.336 77.4196 55.784 77.0356 56.152C76.6676 56.52 76.2196 56.704 75.6916 56.704ZM74.0596 70.144C73.2916 70.144 72.6676 69.904 72.1876 69.424C71.7236 68.944 71.4916 68.224 71.4916 67.264C71.4916 66.864 71.5556 66.344 71.6836 65.704L73.3156 58H76.7716L75.0436 66.16C74.9796 66.4 74.9476 66.656 74.9476 66.928C74.9476 67.248 75.0196 67.48 75.1636 67.624C75.3236 67.752 75.5796 67.816 75.9316 67.816C76.3956 67.816 76.8276 67.624 77.2276 67.24C77.6276 66.84 77.9156 66.328 78.0916 65.704H79.0996C78.5076 67.432 77.7476 68.608 76.8196 69.232C75.8916 69.84 74.9716 70.144 74.0596 70.144ZM86.338 70.144C85.49 70.144 84.874 69.888 84.49 69.376C84.106 68.864 83.914 68.216 83.914 67.432C83.914 67.096 83.954 66.72 84.034 66.304C84.114 65.872 84.194 65.456 84.274 65.056C84.37 64.656 84.434 64.4 84.466 64.288C84.594 63.728 84.714 63.176 84.826 62.632C84.938 62.088 84.994 61.648 84.994 61.312C84.994 60.496 84.706 60.088 84.13 60.088C83.714 60.088 83.346 60.296 83.026 60.712C82.706 61.112 82.45 61.64 82.258 62.296L80.626 70H77.17L79.714 58H83.17L82.906 59.248C83.706 58.352 84.642 57.904 85.714 57.904C86.53 57.904 87.178 58.128 87.658 58.576C88.138 59.024 88.378 59.704 88.378 60.616C88.378 61.08 88.322 61.6 88.21 62.176C88.098 62.736 87.938 63.424 87.73 64.24C87.602 64.736 87.482 65.224 87.37 65.704C87.274 66.168 87.226 66.536 87.226 66.808C87.226 67.128 87.298 67.376 87.442 67.552C87.586 67.728 87.834 67.816 88.186 67.816C88.57 67.816 88.834 67.768 88.978 67.672C88.882 68.488 88.586 69.104 88.09 69.52C87.61 69.936 87.026 70.144 86.338 70.144Z" fill="#00C2FF"/>
</svg>
