<svg width="22" height="25" viewBox="0 0 22 25" fill="none" xmlns="http://www.w3.org/2000/svg">
<path d="M14.5954 11.875C14.5954 12.6375 14.0297 13.2625 13.3131 13.2625C12.6091 13.2625 12.0309 12.6375 12.0309 11.875C12.0309 11.1125 12.5966 10.4875 13.3131 10.4875C14.0297 10.4875 14.5954 11.1125 14.5954 11.875ZM8.72457 10.4875C8.008 10.4875 7.44229 11.1125 7.44229 11.875C7.44229 12.6375 8.02057 13.2625 8.72457 13.2625C9.44114 13.2625 10.0069 12.6375 10.0069 11.875C10.0194 11.1125 9.44114 10.4875 8.72457 10.4875ZM22 2.575V25C18.8329 22.2171 19.8458 23.1383 16.1669 19.7375L16.8331 22.05H2.57714C1.15657 22.05 0 20.9 0 19.475V2.575C0 1.15 1.15657 0 2.57714 0H19.4229C20.8434 0 22 1.15 22 2.575ZM18.4171 14.425C18.4171 10.4 16.6069 7.1375 16.6069 7.1375C14.7966 5.7875 13.0743 5.825 13.0743 5.825L12.8983 6.025C15.0354 6.675 16.0286 7.6125 16.0286 7.6125C13.0423 5.98511 9.53445 5.98481 6.63771 7.25C6.17257 7.4625 5.896 7.6125 5.896 7.6125C5.896 7.6125 6.93943 6.625 9.20229 5.975L9.07657 5.825C9.07657 5.825 7.35429 5.7875 5.544 7.1375C5.544 7.1375 3.73371 10.4 3.73371 14.425C3.73371 14.425 4.78971 16.2375 7.568 16.325C7.568 16.325 8.03314 15.7625 8.41029 15.2875C6.81371 14.8125 6.21029 13.8125 6.21029 13.8125C6.39522 13.9412 6.70018 14.1081 6.72571 14.125C8.84763 15.3065 11.8617 15.6937 14.5703 14.5625C15.0103 14.4 15.5006 14.1625 16.016 13.825C16.016 13.825 15.3874 14.85 13.7406 15.3125C14.1177 15.7875 14.5703 16.325 14.5703 16.325C17.3486 16.2375 18.4171 14.425 18.4171 14.425Z" fill="#E5E5E5"/>
</svg>
