<svg width="25" height="26" viewBox="0 0 25 26" fill="none" xmlns="http://www.w3.org/2000/svg">
<path d="M8.36189 20.1805C8.36189 20.282 8.24597 20.3633 8.0998 20.3633C7.93347 20.3785 7.81754 20.2973 7.81754 20.1805C7.81754 20.0789 7.93347 19.9977 8.07964 19.9977C8.23085 19.9824 8.36189 20.0637 8.36189 20.1805ZM6.79435 19.952C6.75907 20.0535 6.85988 20.1703 7.01109 20.2008C7.14214 20.2516 7.29335 20.2008 7.32359 20.0992C7.35383 19.9977 7.25806 19.8809 7.10685 19.8352C6.97581 19.7996 6.82964 19.8504 6.79435 19.952ZM9.02218 19.8656C8.87601 19.9012 8.7752 19.9977 8.79032 20.1145C8.80544 20.216 8.93649 20.282 9.0877 20.2465C9.23387 20.2109 9.33468 20.1145 9.31956 20.0129C9.30443 19.9164 9.16835 19.8504 9.02218 19.8656ZM12.3387 0.40625C5.34778 0.40625 0 5.75352 0 12.7969C0 18.4285 3.51815 23.2477 8.54335 24.9438C9.18851 25.0605 9.41532 24.6594 9.41532 24.3293C9.41532 24.0145 9.4002 22.2777 9.4002 21.2113C9.4002 21.2113 5.87198 21.973 5.13105 19.698C5.13105 19.698 4.55645 18.2203 3.72984 17.8395C3.72984 17.8395 2.5756 17.0422 3.81048 17.0574C3.81048 17.0574 5.06552 17.159 5.75605 18.3676C6.85988 20.3277 8.70968 19.7641 9.43044 19.4289C9.54637 18.6164 9.87399 18.0527 10.2369 17.7176C7.41935 17.4027 4.57661 16.9914 4.57661 12.1062C4.57661 10.7098 4.95968 10.009 5.76613 9.11523C5.63508 8.78516 5.20665 7.42422 5.89718 5.66719C6.9506 5.33711 9.375 7.03828 9.375 7.03828C10.3831 6.75391 11.4667 6.60664 12.5403 6.60664C13.6139 6.60664 14.6976 6.75391 15.7056 7.03828C15.7056 7.03828 18.13 5.33203 19.1835 5.66719C19.874 7.4293 19.4456 8.78516 19.3145 9.11523C20.121 10.0141 20.6149 10.7148 20.6149 12.1062C20.6149 17.0066 17.6462 17.3977 14.8286 17.7176C15.2923 18.1187 15.6855 18.8805 15.6855 20.0738C15.6855 21.7852 15.6704 23.9027 15.6704 24.3191C15.6704 24.6492 15.9022 25.0504 16.5423 24.9336C21.5827 23.2477 25 18.4285 25 12.7969C25 5.75352 19.3296 0.40625 12.3387 0.40625ZM4.89919 17.9207C4.83367 17.9715 4.84879 18.0883 4.93448 18.1848C5.01512 18.266 5.13105 18.3016 5.19657 18.2355C5.2621 18.1848 5.24698 18.068 5.16129 17.9715C5.08065 17.8902 4.96472 17.8547 4.89919 17.9207ZM4.35484 17.5094C4.31956 17.5754 4.36996 17.6566 4.47077 17.7074C4.55141 17.7582 4.65222 17.743 4.6875 17.6719C4.72278 17.6059 4.67238 17.5246 4.57157 17.4738C4.47077 17.4434 4.39012 17.4586 4.35484 17.5094ZM5.9879 19.3172C5.90726 19.3832 5.9375 19.5355 6.05343 19.632C6.16935 19.7488 6.31552 19.7641 6.38105 19.6828C6.44657 19.6168 6.41633 19.4645 6.31552 19.368C6.20464 19.2512 6.05343 19.2359 5.9879 19.3172ZM5.41331 18.5707C5.33266 18.6215 5.33266 18.7535 5.41331 18.8703C5.49395 18.9871 5.63004 19.0379 5.69556 18.9871C5.77621 18.9211 5.77621 18.7891 5.69556 18.6723C5.625 18.5555 5.49395 18.5047 5.41331 18.5707Z" fill="#E5E5E5"/>
</svg>
