<svg width="25" height="25" viewBox="0 0 25 25" fill="none" xmlns="http://www.w3.org/2000/svg">
<path d="M22.4302 7.40803C22.446 7.6301 22.446 7.85222 22.446 8.07429C22.446 14.8477 17.2906 22.6523 7.86802 22.6523C4.96509 22.6523 2.26841 21.8115 0 20.3522C0.412451 20.3998 0.808984 20.4157 1.2373 20.4157C3.63257 20.4157 5.83755 19.6067 7.59834 18.2266C5.3458 18.179 3.45811 16.7037 2.80771 14.6733C3.125 14.7208 3.44224 14.7526 3.77539 14.7526C4.2354 14.7526 4.69546 14.6891 5.12373 14.5781C2.77603 14.1022 1.01519 12.04 1.01519 9.54954V9.48611C1.69727 9.86682 2.49048 10.1048 3.33115 10.1365C1.95107 9.21638 1.04692 7.64597 1.04692 5.86931C1.04692 4.91755 1.30068 4.04509 1.74487 3.28367C4.26709 6.3928 8.05835 8.42322 12.3096 8.64534C12.2303 8.26462 12.1827 7.86809 12.1827 7.47151C12.1827 4.64788 14.4669 2.34778 17.3064 2.34778C18.7816 2.34778 20.1141 2.96643 21.0501 3.9658C22.208 3.74373 23.3184 3.31541 24.302 2.72849C23.9212 3.91824 23.1122 4.9176 22.0494 5.55208C23.0805 5.44109 24.0799 5.15549 24.9999 4.75896C24.3021 5.77415 23.4295 6.6783 22.4302 7.40803Z" fill="#E5E5E5"/>
</svg>
